# xmcd
#
# Track frame offsets:
#	150
#	26399
#	43930
#	60088
#	77187
#	96539
#	113429
#	133332
#	152155
#	171709
#	195279
#
# Disc length: 2906 seconds
# Revision: 0
# Processed by: cddbd v1.5.2PL0 Copyright (c) Steve Scherf et al.
# Submitted via: dBpowerAMP V12.0
#
DISCID=8f0b580b
DTITLE=Nat Myria Benedetti - Nat Myria Benedetti
DYEAR=1995
DGENRE=Thai Pop
TTITLE0=Yah tum yah tum
TTITLE1=Kor tod tee kuan jai ter
TTITLE2=Ter kuer tee sood
TTITLE3=Khon pieng kon diew
TTITLE4=Fah kub tawan
TTITLE5=Tummai
TTITLE6=Yung mee wung
TTITLE7=Rua haeng kwam ruk
TTITLE8=Mai mee kum tarm
TTITLE9=NA NA chai ter took yang
TTITLE10=Took tee mee tae ter
EXTD=
EXTT0=
EXTT1=
EXTT2=
EXTT3=
EXTT4=
EXTT5=
EXTT6=
EXTT7=
EXTT8=
EXTT9=
EXTT10=
PLAYORDER=
